<svg xmlns="http://www.w3.org/2000/svg" viewBox="0 0 42 42"><g data-name="Group 34707"><g data-name="Group 36663"><path fill="none" d="M0 0h42v42H0z"/><g data-name="Group 36662"><path fill="none" d="M2 2h38v38H2z"/><path fill="#7ad0c9" d="M19.54 16.61V4.92A2.92 2.92 0 0 0 16.6 2H4.92A2.92 2.92 0 0 0 2 4.92v11.7a2.92 2.92 0 0 0 2.92 2.92h11.7a2.92 2.92 0 0 0 2.92-2.93zm-11.7-7.3l5.85.03a1.46 1.46 0 1 1 0 2.93H7.85a1.46 1.46 0 0 1 0-2.92zm8.77 13.16H4.92A2.92 2.92 0 0 0 2 25.38v11.7A2.92 2.92 0 0 0 4.92 40h11.7a2.92 2.92 0 0 0 2.92-2.93v-11.7a2.92 2.92 0 0 0-2.94-2.91zM14.72 35.2a1.46 1.46 0 0 1-2.06 0l-1.9-1.9-1.88 1.9a1.46 1.46 0 1 1-2.07-2.07l1.9-1.9-1.86-1.88a1.46 1.46 0 1 1 2.07-2.07l1.9 1.9 1.88-1.89a1.46 1.46 0 1 1 2.04 2.07l-1.9 1.9 1.9 1.88a1.46 1.46 0 0 1 0 2.07zm7.74-9.82v11.7A2.92 2.92 0 0 0 25.38 40h11.7A2.92 2.92 0 0 0 40 37.07v-11.7a2.92 2.92 0 0 0-2.94-2.91H25.38a2.92 2.92 0 0 0-2.92 2.92zm11.7 8.77H28.3a1.46 1.46 0 1 1 0-2.92h5.85a1.46 1.46 0 1 1 0 2.92zm0-4.38H28.3a1.46 1.46 0 0 1 0-2.93h5.85a1.46 1.46 0 1 1 0 2.93zm-8.78-10.23h11.7A2.92 2.92 0 0 0 40 16.62V4.92A2.92 2.92 0 0 0 37.06 2H25.38a2.92 2.92 0 0 0-2.92 2.92v11.7a2.92 2.92 0 0 0 2.92 2.92zM28.3 9.31l1.46.03V7.86a1.46 1.46 0 0 1 2.92 0v1.46h1.46a1.46 1.46 0 1 1 0 2.93H32.7v1.46a1.46 1.46 0 1 1-2.92 0v-1.47h-1.46a1.46 1.46 0 1 1 0-2.92z"/></g></g></g></svg>