<svg xmlns="http://www.w3.org/2000/svg" viewBox="0 0 42 42"><g data-name="Group 36567"><path fill="none" d="M0 0h42v42H0z"/><g fill="#fab0a2"><path d="M39.54 36.83L36.6 33.9a9.58 9.58 0 1 0-2.7 2.7l2.95 2.94a1.91 1.91 0 1 0 2.7-2.7zm-16.63-8.2a5.73 5.73 0 1 1 5.73 5.73 5.73 5.73 0 0 1-5.73-5.73z"/><path d="M17.18 28.64a11.4 11.4 0 0 1 13.37-11.3v-2.11a1.87 1.87 0 0 0 1.55-.76 1.91 1.91 0 0 0-.44-2.67L18.3 2.26a1.91 1.91 0 0 0-2.22 0L2.7 11.8a1.91 1.91 0 0 0 1.1 3.46v15.29a1.91 1.91 0 0 0 1.92 1.9h12.13a11.38 11.38 0 0 1-.67-3.81zm-3.82-15.28a1.91 1.91 0 0 1 1.9-1.91h3.83a1.91 1.91 0 0 1 0 3.82h-3.82a1.91 1.91 0 0 1-1.9-1.91z"/></g></g></svg>