<svg xmlns="http://www.w3.org/2000/svg" viewBox="0 0 42 42"><g data-name="Group 48560"><path fill="none" d="M0 0h42v42H0z"/><g fill="#6d7fbe" data-name="Group 48559"><path d="M33.74 15.86c0-.27.23-.5.5-.5h6.27c.27 0 .5.23.5.5v23.28a.5.5 0 0 1-.5.5h-6.27a.5.5 0 0 1-.5-.5V15.86zm-11.04 7.1c0-.26.24-.5.5-.5h6.28c.27 0 .5.24.5.5v16.18a.5.5 0 0 1-.5.5H23.2a.5.5 0 0 1-.5-.5V22.97zM12.2 20.15h6.27a.47.47 0 0 1 .5.44V39.2a.47.47 0 0 1-.5.44H12.2a.47.47 0 0 1-.5-.43V20.58a.47.47 0 0 1 .5-.44zM.69 27.08c0-.27.22-.5.49-.5h6.27c.27 0 .5.23.5.5v12.06a.5.5 0 0 1-.5.5H1.18a.5.5 0 0 1-.5-.5V27.08z" data-name="Group 48536"/><path d="M4.6 23.25H1.38a.71.71 0 0 1-.5-1.22l1.58-1.57L15.2 8.8a1.55 1.55 0 0 1 1.73-.25l8.2 4.06L36.5 2.56a.7.7 0 0 1 .5-.2h3.23a.71.71 0 0 1 .5 1.22L26.56 16.4a1.55 1.55 0 0 1-1.73.24l-8.2-4.05L5.1 23.05a.71.71 0 0 1-.5.2z"/></g></g></svg>