<svg xmlns="http://www.w3.org/2000/svg" viewBox="0 0 42 42"><g data-name="Group 36569"><path fill="none" d="M0 0h42v42H0z"/><path fill="#f5ca71" d="M40.4 38V18.7a1.2 1.2 0 0 0-1.1-1.3h-3.8a1.2 1.2 0 0 0-1.2 1.2v8.9h-4.4l-3.8-4h-3.8a.9.9 0 0 0-1 1V38h-7V11.3a1.4 1.4 0 0 0 1.5-1.3h13v3.2a.7.7 0 0 0 .6.7h1a.7.7 0 0 0 .7-.7V10h4a.9.9 0 0 0 .6-1.5l-5-5a2.7 2.7 0 0 0-2-.8h-13v-.2a1.2 1.2 0 0 0-1-1.2H7a1.2 1.2 0 0 0-1.2 1.2v.2H2.3A1.5 1.5 0 0 0 .8 4.2v4A1.5 1.5 0 0 0 2.3 10h3.5A1.4 1.4 0 0 0 7 11.3V38H.9a.5.5 0 0 0-.5.5V40a.5.5 0 0 0 .5.5h40.3a.5.5 0 0 0 .5-.5v-1.3a.6.6 0 0 0-.6-.6zM29 5l2.4 2.5h-4.9zm-3.5 0l-2.2 2.5L20.9 5zm-9.7 0h1.5l2.4 2.5h-4zm-10 2.5H3.2V5h2.6zM12 38H9.6v-5.6H12zm0-8H9.6v-5.5H12zm0-8H9.6v-5.4H12zm0-8H9.6v-2.8H12zm16.9 21.7h-2.4V32h2.4zm7.4 0h-2.4V32h2.4z"/></g></svg>