<svg xmlns="http://www.w3.org/2000/svg" viewBox="0 0 42 42"><g data-name="Group 36641"><path fill="none" d="M0 0h42v42H0z"/><g data-name="Group 36675"><path fill="#7ed8aa" d="M21.7 14.7l-5.3-2V36l9.2 3.7V21.3a29.8 29.8 0 0 1-4-6.6z" data-name="Group 36674"/><path fill="#7ed8aa" d="M2.7 18.2V38A1.6 1.6 0 0 0 5 39.6l9.2-3.7V12.5L3.8 16.7a1.6 1.6 0 0 0-1 1.5zM34 25a3.4 3.4 0 0 1-5.1 0l-1-1v16l10.5-4.2a1.6 1.6 0 0 0 1-1.5V17.8A49.7 49.7 0 0 1 34 25z"/><path fill="#7ed8aa" d="M31.4 2a8 8 0 0 0-8 8c0 3.3 4.8 9.7 7 12.4a1.3 1.3 0 0 0 2 0c2-2.7 7-9 7-12.3a8 8 0 0 0-8-8zm0 11.6A3.4 3.4 0 0 1 28 10a3.4 3.4 0 0 1 3.5-3.4 3.4 3.4 0 0 1 3.4 3.4 3.4 3.4 0 0 1-3.4 3.5z"/></g></g></svg>