<svg xmlns="http://www.w3.org/2000/svg" viewBox="0 0 42 42"><g data-name="Group 36544"><path fill="none" d="M0 0h42v42H0z"/><path fill="#75c19a" d="M23.65 4.25H2.48A1.76 1.76 0 0 0 .72 6.01v30a1.76 1.76 0 0 0 1.76 1.76h21.17a1.76 1.76 0 0 0 1.76-1.76V6a1.76 1.76 0 0 0-1.76-1.74zm-15.88 30H4.25v-3.54h3.53zm0-7.06H4.25v-3.53h3.53zm0-7.06H4.25V16.6h3.53zm7.06 14.12H11.3v-3.53h3.53zm0-7.06H11.3v-3.53h3.53zm0-7.06H11.3V16.6h3.53zm7.06 14.12h-3.54v-10.6h3.53zm0-14.12h-3.54V16.6h3.53zm0-7.06H4.25v-5.3h17.64zm7.06 22.16H41.3v2.54H28.95zm0-5.08H41.3v2.54H28.95zm0-5.05H41.3v2.52H28.95zm0-5.09H41.3v2.54H28.95zm10.6-15.76H30.7a1.76 1.76 0 0 0-1.76 1.76v11.47l2.65-2.65h7.94a1.76 1.76 0 0 0 1.76-1.76V6a1.76 1.76 0 0 0-1.76-1.76zM33.35 6.9a.88.88 0 1 1-.87.88.88.88 0 0 1 .88-.9zm3.54 5.3a.88.88 0 1 1 .88-.9.88.88 0 0 1-.88.9zm.63-3.8c-3.8 3.8-3.65 3.8-4.16 3.8a.88.88 0 0 1-.61-1.52l3.52-3.53a.9.9 0 1 1 1.26 1.25z" data-name="Group 36656"/></g></svg>