<svg xmlns="http://www.w3.org/2000/svg" xmlns:xlink="http://www.w3.org/1999/xlink">
  <svg xmlns="http://www.w3.org/2000/svg" id="regular" class="svg-icon-sprite" data-name="regular" viewBox="0 0 32 30.2">
    <svg xmlns="http://www.w3.org/2000/svg" id="underline" class="svg-icon-sprite" data-name="underline" viewBox="0 0 32 30.2">
      <g fill="#fff">
        <path d="M8.7 21.3a9 9 0 0 1-.1 1.7 2.3 2.3 0 0 0 0 .2l-.3 1.1-.3.8-.2.7a12 12 0 0 1-.5 1l-.6 1.3-.3.6a2.2 2.2 0 0 1-1 1 3 3 0 0 1-.7.2l-1.1.3-1.2.3-.8.2-1 .3a.5.5 0 0 1-.5 0 .2.2 0 0 1 0-.3.7.7 0 0 1 .1-.2 3.2 3.2 0 0 1 .5-.4l1.1-.6.8-.5 1-.5 1-.7 1-.7 1-.9a1 1 0 0 0 .2-.4 2 2 0 0 0 0-1 1.3 1.3 0 0 0 0-.3 1.3 1.3 0 0 0-.4-.4.2.2 0 0 0-.2 0 3.7 3.7 0 0 1-1 0 2.5 2.5 0 0 1-.8-.3 2 2 0 0 1-1-.7 1.7 1.7 0 0 1-.2-.7 2.1 2.1 0 0 1 0-1 3.6 3.6 0 0 1 .3-.6l.1-.3.2-.4a10.1 10.1 0 0 0 .5-1c0-.4.2-.7.3-1a2.2 2.2 0 0 1 .9-1.1 1 1 0 0 1 .5-.2 1.7 1.7 0 0 1 .4 0 1.6 1.6 0 0 1 .9.4 2.3 2.3 0 0 1 .5.6 5.7 5.7 0 0 1 .5 1.2 6.7 6.7 0 0 1 .4 2v.3zM7.3 30.8l.2-.1.4-.3 1-.7 1-.7 1.2-.7 1.3-.6.8-.5 1-.7a1.5 1.5 0 0 0 .5-.7 2.1 2.1 0 0 0 .1-.8 3.3 3.3 0 0 0-.3-1.4 3.2 3.2 0 0 0-.6-.8 5.2 5.2 0 0 0-1.2-1 5 5 0 0 0-.7-.4.4.4 0 0 1 0-.3 1.8 1.8 0 0 1 0-.2l.2-.3a1.3 1.3 0 0 0 0-.3l.5-1.4.5-1.5.1-.4v-.1h.1a2.7 2.7 0 0 1 .9.2 3.5 3.5 0 0 1 1 .7 5.9 5.9 0 0 1 .6.6 6.2 6.2 0 0 1 .6 1 2.5 2.5 0 0 1 .2.7 7 7 0 0 1 .1 1.4 8.7 8.7 0 0 1-.2 1.6l-.2.8A10.5 10.5 0 0 1 16 25l-.4.8-.4.9-.5 1-.4.7a2.3 2.3 0 0 1-.4.6l-.4.5a.5.5 0 0 1-.2 0l-.7.3-.9.2-.9.3-1.3.3-1 .2-.7.2h-.1a.2.2 0 0 1-.3 0 1.2 1.2 0 0 1 0-.2zM27.4 29.8v-.3a11.2 11.2 0 0 0 .2-1.2v-1l.2-1v-1.6a4 4 0 0 0 0-.7v-1.2l-.1-3v-3a.3.3 0 0 1 0-.2l.1-.4.5-1.4.4-1 .2-.4.6-1.4.3-.6a.2.2 0 0 1 .1-.1.4.4 0 0 1 .5 0 .2.2 0 0 1 0 .2v.5l-.1.9-.1.7V15l-.2 3v6.3l-.2 1a17.5 17.5 0 0 1-.5 2 18.9 18.9 0 0 1-1 2.6 2.3 2.3 0 0 1-.2.3.4.4 0 0 1-.1.1.3.3 0 0 1-.3 0 .4.4 0 0 1-.3-.2 1.5 1.5 0 0 1 0-.2zM25.8 18.2a6.2 6.2 0 0 1-.1 1l-.2.8-.3 1.4-.3 1.1-.5 1.4-.2.7-.4 1.2-.5 1-.6 1.2-.4.8a2.5 2.5 0 0 1-1 1 3.1 3.1 0 0 1-.7.3 4 4 0 0 1-.7.2l-1 .1h-.7a11 11 0 0 0-1.1.3l-1.1.2h-.6a.7.7 0 0 1-.3 0 .3.3 0 0 1-.2 0 .3.3 0 0 1 0-.3.5.5 0 0 1 .1-.3 1.3 1.3 0 0 1 .2-.1l1.3-.8 1.3-.8.9-.6 1-.8.7-.4.8-.7a1.4 1.4 0 0 0 .2-.2 9.4 9.4 0 0 0 .6-.9l.6-1 .3-.5.6-1.3.2-.7.5-1.4.6-1.9.1-.2a.5.5 0 0 1 .7-.3.3.3 0 0 1 .2.2 2.5 2.5 0 0 0 0 .3zM29.6 5.8l-.4-.3a4.2 4.2 0 0 1-.4-.5.3.3 0 0 1-.1-.1l-.2-.7a.6.6 0 0 1 0-.3 3.5 3.5 0 0 1 .2-1A4.3 4.3 0 0 1 29 2l.2-.3a2 2 0 0 1 .9-.7 2.6 2.6 0 0 1 .4-.1h.3a1.1 1.1 0 0 1 .9.6 1.9 1.9 0 0 1 .2.6 3.2 3.2 0 0 1 0 .5 2.3 2.3 0 0 0 0 .3 2.6 2.6 0 0 1-.2 1l-.3.6a7 7 0 0 1-.5 1 9 9 0 0 1-.5.8 5.4 5.4 0 0 1-.6.6l-.6.6a2.9 2.9 0 0 1-.3.2l-.5.3a1.8 1.8 0 0 1-.3.1l-.4.3-.7.3a2.4 2.4 0 0 1-.9.2h-.6l.8-.5A6 6 0 0 0 27 8l.5-.3.3-.3.9-.7.8-.7.1-.2zm1-1.5a.9.9 0 0 0 .2-.2 1.5 1.5 0 0 0-.1-1 .8.8 0 0 0-.3-.3 1.2 1.2 0 0 0-.5-.2.3.3 0 0 0-.4.2.3.3 0 0 0 0 .3 1.1 1.1 0 0 0 .3.5 4.1 4.1 0 0 0 .9.7zM10 13.7l.3-.3.6-.3.5-.3.2-.2a7 7 0 0 0 .8-.6l.6-.5.7-.6.2-.1v-.1a5.7 5.7 0 0 1-.8-.8.6.6 0 0 1-.1-.2l-.2-.7a.6.6 0 0 1 0-.2 2.8 2.8 0 0 1 0-.5 3.8 3.8 0 0 1 .5-1.2 4.3 4.3 0 0 1 .4-.7 2 2 0 0 1 1-.6 1 1 0 0 1 .5 0 1.2 1.2 0 0 1 .7.2 1 1 0 0 1 .2.3 2 2 0 0 1 .2.9v.7a1.4 1.4 0 0 1 0 .4 9.9 9.9 0 0 1-.4 1 5.4 5.4 0 0 1-.4.9l-.5.6a7.6 7.6 0 0 1-1.2 1.3l-.8.6a5.7 5.7 0 0 1-.9.5l-.7.3a2 2 0 0 1-.8.2h-.5zm5-4.5a.4.4 0 0 0 0-.3 1.7 1.7 0 0 0 0-.7 1 1 0 0 0-.2-.5 1.2 1.2 0 0 0-.7-.3.3.3 0 0 0-.3.1.6.6 0 0 1 0 .2.3.3 0 0 0 0 .2 1.1 1.1 0 0 0 .2.5 3.8 3.8 0 0 0 .9.7z" transform="translate(0 -.9)"/>
      </g>
    </svg>
  </svg>
</svg>
