<svg width="330" height="198" viewBox="0 0 330 198" xmlns="http://www.w3.org/2000/svg">
  <defs/>
  <path d="M164.782 33.154c62.4 0 112.986 62.324 112.986 120.742 0 0-50.586 30.104-112.986 30.104-62.4 0-112.986-30.104-112.986-30.104 0-58.418 50.586-120.742 112.986-120.742z" fill="#EDEDED"/>
  <path d="M319.639 65.523a9.248 9.248 0 01-.1 1.42h-3.263v-2.455c0-.427-.013-.86-.013-1.286a3.91 3.91 0 01.075-1.21 2.29 2.29 0 01.69-.96 1.02 1.02 0 011.356-.089 3.346 3.346 0 011.1 2.428c.091.714.141 1.433.151 2.152h.004z" fill="#BEB5A1"/>
  <path d="M308.715 100.59s10.109-1.718 16.74.276v47.648h-16.74V100.59z" fill="#A38F7F"/>
  <path d="M325.298 98.972s1.745.628.157 1.899c-6.632-2-16.74-.276-16.74-.276v-2.271s10.422-1.983 16.583.653v-.005z" fill="#A38F7F"/>
  <path d="M315.095 41.793a6.37 6.37 0 01-.107 1.3.398.398 0 00-.168-.031.439.439 0 00-.177.03 7.165 7.165 0 01-.1-1.3c0-.921.127-1.668.277-1.668.15 0 .275.747.275 1.669z" fill="#B08B4F"/>
  <path d="M314.989 43.092a.637.637 0 01.483.621.654.654 0 01-.483.634.298.298 0 00-.169-.056.29.29 0 00-.169.056.654.654 0 01-.351-1.027.634.634 0 01.345-.228c.05.226.106.364.175.364.069 0 .126-.139.169-.364zm.244 2.835c-.088.257-.245.427-.414.427-.169 0-.326-.169-.414-.427a1.017 1.017 0 01.828 0z" fill="#B08B4F"/>
  <path d="M315.334 45.32c.002.207-.032.413-.1.608a1.017 1.017 0 00-.828 0 1.828 1.828 0 01-.1-.609 1.23 1.23 0 01.345-.973.5.5 0 00.169.025.519.519 0 00.169-.025 1.233 1.233 0 01.345.973z" fill="#B08B4F"/>
  <path d="M315.164 47.84c2.554.02 6.808.986 6.808 7.122l.634.075s0 1.192.006 1.192c-8.772-2.855-14.563-.163-14.563-.163a6.85 6.85 0 015.22-8.07 8.51 8.51 0 011.243-.143h.006a.947.947 0 00.645-.013h.001z" fill="#D2C0AA"/>
  <path d="M314.819 46.354c.169 0 .327-.169.415-.427a1.028 1.028 0 01-.069 1.914c-.232-.006-.453.006-.648.013h-.005a1.025 1.025 0 01-.573-1.523c.11-.179.273-.32.466-.403.088.257.238.427.413.427h.001z" fill="#B08B4F"/>
  <path d="M322.769 66.99l3.799.954v2.178a8.163 8.163 0 00-1.461 1.512l-.15-.056c-9.437-3.84-19.915 0-19.915 0a23.1 23.1 0 01-.239-2.6l.791-1.192 2.222-.238h1.117v.314l.872-.915v-4.223h1.367c0 .276.026.552.026.828v3.39h3.268c.058-.44.084-.882.075-1.324h1.739v1.324h3.262a9.114 9.114 0 00.1-1.419h1.1v1.419l.872.915V62.18h.784c.063 1.657.308 3.37.37 4.813l.001-.002z" fill="#BEB5A1"/>
  <path d="M323.635 89.309a30.926 30.926 0 00-14.921 0h-.194V76.96s-.4-3.952-3.482-5.383c0 0 10.478-3.84 19.914 0l.151.056a6.745 6.745 0 00-1.468 4.065v13.61zm-.928-30.531a10.994 10.994 0 00-.308 3.4h-.784s-.118-2.868-.871 0v3.344h-1.1a19.35 19.35 0 00-.15-2.152 3.34 3.34 0 00-1.1-2.429 1.02 1.02 0 00-1.355.088 2.29 2.29 0 00-.69.96 3.91 3.91 0 00-.075 1.211c0 .427.012.86.012 1.286v1.13h-1.738a19.102 19.102 0 00-.132-2.165 6.772 6.772 0 00-.195-1.274 2.021 2.021 0 00-1.355-1.443 1.24 1.24 0 00-1.185.6c-.218.25-.375.546-.458.866-.03.172-.045.346-.044.521h-1.368v-.54c-.753-2.867-.872 0-.872 0v5.364h-1.117v-7.674c-.013-.928-2.428-.852-2.948-1.217.338-1 1.624-1.605 2.472-2.107l.715-.477s5.791-2.692 14.563.163a13.6 13.6 0 012.171.4c1.851.54-.019 1.274-1 1.952-.15.128-.329.218-.521.264a1.66 1.66 0 01-.552-.063l-.015-.008z" fill="#BEB5A1"/>
  <path d="M308.715 100.59v14.407H200.888V100.59h107.827zm0-2.271v2.271H200.888v-2.271h107.827z" fill="#A38F7F"/>
  <path d="M297.652 83.774a6.202 6.202 0 00-1.404 3.08 22.29 22.29 0 00-12.738 0c.075-.866-1.506-2.61-2.692-3.08 0 0 9.123-3.17 16.834 0z" fill="#BEB5A1"/>
  <path d="M298.155 122.739c1.387-.433 1.782.477 2.334.909.759-.269 1.23.64 1.349 1.349 1.148-.038 1.029 1.148 1.312 1.939.91.433.27 2.5.27 2.5v15.592h-13.298v-15.594s-.628-2.065.275-2.5c.276-.791.157-1.977 1.312-1.939.119-.709.59-1.618 1.343-1.349.552-.432.948-1.342 2.334-.909.621-.4 1.161-.728 1.362-.847.145.082.722.4 1.405.847l.002.002z" fill="#211B24"/>
  <path d="M295.507 92.603c-.515.013-1.481-.929-1.92-1.216-.6-.4-.659-.415-1.262.088-.15.119-1.681 1.45-1.732 1.45a10.41 10.41 0 00-2.309-1.663c-.822-.296-1.43.288-2 .752-.359.327-.738.63-1.135.91-.552-.464-1.1-.929-1.644-1.4V88.52a20.781 20.781 0 0112.731 0c.006.025.006.05.013.082v3.585a1.77 1.77 0 01-.747.42l.005-.003z" fill="#8E867C"/>
  <path d="M289.973 62.272a1.032 1.032 0 11-.835 0c.088.257.246.42.415.42.169 0 .325-.163.419-.42h.001z" fill="#B08B4F"/>
  <path d="M289.602 64.299s5.3-.314 5.861 6.255a31.32 31.32 0 00-11.865 0h-.012c.144-.609.044-1.55.2-2.065a7.26 7.26 0 01.835-1.9 5.394 5.394 0 014.981-2.29z" fill="#D2C0AA"/>
  <path d="M289.836 58.133c.004.435-.03.87-.101 1.3a.605.605 0 00-.181-.025.563.563 0 00-.176.025 7.548 7.548 0 01-.101-1.3c0-.916.126-1.663.277-1.663.151 0 .282.747.282 1.663z" fill="#B08B4F"/>
  <path d="M288.899 60.057a.647.647 0 01.477-.628c.05.232.113.37.176.37.063 0 .131-.138.182-.37a.645.645 0 01.471.628.642.642 0 01-.477.628.307.307 0 00-.176-.056c-.061 0-.12.02-.169.056a.652.652 0 01-.483-.628h-.001zm.653 2.636c-.169 0-.326-.163-.414-.42a.975.975 0 01.835 0c-.094.257-.245.42-.421.42z" fill="#B08B4F"/>
  <path d="M289.552 62.178a.932.932 0 00-.414.094 1.802 1.802 0 01-.099-.609 1.242 1.242 0 01.344-.979.533.533 0 00.17.025.54.54 0 00.176-.025 1.241 1.241 0 01.345.979 1.83 1.83 0 01-.099.61.94.94 0 00-.421-.095h-.002z" fill="#B08B4F"/>
  <path d="M283.513 86.851a22.29 22.29 0 0112.738 0 6.091 6.091 0 00-.006 1.663 20.783 20.783 0 00-12.732 0s-1.029-1.1 0-1.663zm10.155-11.038v3.671l.878.7v-4.37s-.119-2.21-.878 0zm-10.159 4.393c.126-.02.019-4.725.019-5.114a2.596 2.596 0 00-.075-.8c-.42-1.311-1.8-.827-2.692-1.28.452-1.612 1.719-1.078 2.617-2.007a.918.918 0 00.207-.452h.012a31.32 31.32 0 0111.865 0c.662.228 1.301.518 1.908.866.514.37.69.138.339.784-.37.7-1.618.885-2.327.96v6.889s3.162.389 3.162.79l.4 1.739a6.28 6.28 0 00-1.292 1.191c-7.711-3.168-16.834 0-16.834 0-.4-.64-.954-2.534.313-2.773a8.962 8.962 0 012.378-.8v.007zm7.078-4.2v4.148h2.3a17.141 17.141 0 00-.163-4.148c-1.224-2.8-2.14 0-2.14 0h.003zm-1.9 4.148a17.04 17.04 0 00-.164-4.148c-1.223-2.8-2.139 0-2.139 0v4.148h2.303zm-3.532-.665v-3.676c-.759-2.208-.879 0-.879 0v4.374l.879-.7v.002z" fill="#BEB5A1"/>
  <path d="M277.211 122.739c1.386-.433 1.782.477 2.334.909.753-.269 1.23.64 1.349 1.349 1.148-.038 1.029 1.148 1.304 1.939.91.433.277 2.5.277 2.5v15.592h-13.299v-15.594s-.634-2.065.276-2.5c.276-.791.157-1.977 1.305-1.939.119-.709.59-1.618 1.343-1.349.559-.432.954-1.342 2.34-.909.621-.4 1.161-.728 1.362-.847.138.082.715.4 1.406.847l.003.002z" fill="#211B24"/>
  <path d="M233.396 59.086a29.034 29.034 0 0121.811-.307 22.85 22.85 0 0110.917 9.317 24.75 24.75 0 012.108 20.586s-28.423-4.875-49.599-.043c-.295-.93-.583-1.782-.615-1.945a24.095 24.095 0 01.088-11.03c2.152-7.913 8.125-13.629 15.291-16.578h-.001z" fill="#D2C0AA"/>
  <path d="M251.429 56.776s3.533-.584 3.815 1.9l-.038.106a29.032 29.032 0 00-21.809.308c.276-2.48 4.04-2.31 4.04-2.31 2.472-5.565 4.875-7.51 6.999-7.591 2.115.082 4.517 2.026 6.999 7.592l-.006-.005z" fill="#D2C0AA"/>
  <path d="M261.393 126.936c.91.433.276 2.5.276 2.5v15.592h-13.298v-15.594s-.634-2.065.276-2.5c.276-.791.156-1.977 1.304-1.939.119-.709.6-1.618 1.349-1.349.552-.432.947-1.342 2.334-.909.621-.4 1.161-.728 1.362-.847.138.082.721.4 1.405.847 1.387-.433 1.781.477 2.334.909.753-.269 1.23.64 1.349 1.349 1.148-.038 1.029 1.148 1.305 1.939l.004.002z" fill="#211B24"/>
  <path d="M245.136 45.843a1.748 1.748 0 01-.7 3.345 1.748 1.748 0 01-1.558-2.543c.182-.357.482-.64.849-.802.157.433.414.715.709.715s.546-.282.7-.715zm.407-3.755a1.113 1.113 0 01-.828 1.073.454.454 0 00-.571 0 1.11 1.11 0 01-.823-1.068 1.104 1.104 0 01.817-1.072c.075.4.176.628.295.628s.214-.232.295-.628a1.1 1.1 0 01.816 1.067h-.001z" fill="#B08B4F"/>
  <path d="M245.136 45.84c-.157.433-.414.715-.7.715s-.552-.282-.709-.715a1.73 1.73 0 011.412 0h-.003zm-.703-4.192c-.119 0-.22-.232-.295-.628.096-.029.195-.043.295-.044.1.002.199.016.295.044-.082.4-.182.628-.295.628z" fill="#B08B4F"/>
  <path d="M244.433 40.977c-.1.001-.199.016-.295.044a11.091 11.091 0 01-.182-2.19c0-1.563.214-2.83.477-2.83s.471 1.268.471 2.83c.01.734-.049 1.467-.176 2.19a1.153 1.153 0 00-.3-.044h.005zm.872 3.833c.004.35-.054.699-.17 1.03a1.725 1.725 0 00-1.412 0 3.028 3.028 0 01-.17-1.03 2.102 2.102 0 01.59-1.65 1.104 1.104 0 00.571 0 2.092 2.092 0 01.59 1.65h.001z" fill="#B08B4F"/>
  <path d="M237.795 123.649c.753-.269 1.23.64 1.349 1.349 1.141-.038 1.028 1.148 1.299 1.939.916.433.276 2.5.276 2.5v15.592h-13.298v-15.594s-.634-2.065.283-2.5c.27-.791.15-1.977 1.3-1.939.119-.709.6-1.618 1.349-1.349.552-.432.954-1.342 2.333-.909a32.68 32.68 0 011.362-.841c.138.075.722.4 1.412.841 1.381-.433 1.782.477 2.334.909l.001.002z" fill="#211B24"/>
  <path d="M254.391 92.823c-.446.5-.49.791-1.073.5a7.34 7.34 0 01-1.688-1.393c-.722-.678-1.048-.006-1.65.527-.145.126-1.141 1.123-1.361.916a195.74 195.74 0 01-2.008-1.845.302.302 0 00-.182-.094.318.318 0 00-.157.07 29.441 29.441 0 01-2.541 1.87 15.888 15.888 0 00-1.864-1.645c-.609-.382-.772-.1-1.392.3a4.528 4.528 0 01-1.732.872c-.721.107-1.543-.96-2.121-1.462-.578-.501-.609-.6-1.218-.024-.357.338-1.506 1.9-2.008 1.913a.23.23 0 01-.138-.082c-.57-.533-1.141-1.067-1.718-1.588-.552-.5-.615-.514-1.23-.013-.489.504-1.077.9-1.726 1.167-.64.17-1.33-.628-1.907-1.048-.3-.231-.628-.6-.985-.54-.483.082-1.367 1.155-1.756 1.481a.817.817 0 01-.333.195c-.583.12-1.977-1.606-2.6-1.864-.6-.25-1.048.132-1.606.346a13.793 13.793 0 00-.759-2.742c21.177-4.832 49.599.044 49.599.044a4.297 4.297 0 01-.163 2.93 6.873 6.873 0 001.054 1.481c-.74-.577-1.851-1.838-2.767-1.424-.349.185-.688.388-1.016.61-.464.275-.935.551-1.399.834-.734-.433-1.9-1.493-2.73-1.6-.439-.063-2.29 1.94-2.4 1.857-.646-.6-1.487-2.082-2.434-2.2-.91-.112-1.481 1.086-1.983 1.657l-.008-.006z" fill="#8E867C"/>
  <path d="M246.611 91.523a192.12 192.12 0 002.007 1.845c.22.207 1.218-.79 1.362-.916.6-.533.929-1.2 1.65-.527a7.35 7.35 0 001.688 1.393c.584.295.628.006 1.073-.5.5-.57 1.073-1.77 1.982-1.656.947.118 1.789 1.6 2.435 2.2.113.081 1.964-1.92 2.4-1.858.835.107 2 1.167 2.729 1.6.465-.282.935-.558 1.4-.835.328-.22.668-.424 1.017-.609.917-.413 2.027.847 2.768 1.424a.6.6 0 00.063.05l3.319-2.008s1.899.772 1.976 2.008a13.822 13.822 0 011.97-1.82c.9-.664 1.4-.388 2.309.32.433.369.778.83 1.009 1.35 1.035-.679 1.939-1.663 2.949-2.416l.791.948c.546.47 1.092.934 1.644 1.4.397-.28.776-.584 1.135-.91.565-.465 1.174-1.049 1.999-.754a10.41 10.41 0 012.31 1.663c.051 0 1.581-1.33 1.732-1.45.6-.5.659-.489 1.262-.088.439.29 1.405 1.23 1.92 1.217a1.76 1.76 0 00.746-.42v.056l.332-.3 1.167-1.042s2.535.552 2.855 1.9c1.1-.872 2.686-2.064 2.686-2.064a12.855 12.855 0 013.087 1.744 59.804 59.804 0 002.14-1.744V89.3h.195a30.924 30.924 0 0114.921 0 1.752 1.752 0 011.663 1.826v7.843c-6.162-2.635-16.583-.652-16.583-.652H200.892v-7.51a4.028 4.028 0 011.951 2.3c1.6-3.018 3.414-2.924 4.812.03-.571-1.224 4.876-4 5.083-.013 0-.5 1.87-2.1 2.499-2.164 1.375-.144 1.92.89 2.6 1.9a12.357 12.357 0 001.556-1.481c.559-.214 1.01-.6 1.607-.346.628.257 2.021 1.983 2.599 1.864a.813.813 0 00.332-.195c.389-.326 1.274-1.4 1.757-1.48.358-.056.684.306.985.54.578.42 1.268 1.216 1.908 1.047a5.13 5.13 0 001.726-1.167c.615-.5.678-.483 1.229.013.577.521 1.148 1.054 1.719 1.588a.232.232 0 00.138.082c.5-.013 1.65-1.575 2.008-1.913.609-.577.646-.472 1.217.024.571.496 1.4 1.57 2.121 1.462a4.517 4.517 0 001.731-.872c.621-.4.784-.683 1.393-.3a15.897 15.897 0 011.864 1.644 29.414 29.414 0 002.542-1.87.319.319 0 01.157-.069.3.3 0 01.182.094l.003-.002z" fill="#A38F7F"/>
  <path d="M219.774 126.936c.91.433.276 2.5.276 2.5v15.592h-13.298v-15.594s-.634-2.065.276-2.5c.276-.791.157-1.977 1.3-1.939.119-.709.599-1.618 1.342-1.349.559-.432.954-1.342 2.334-.909.621-.4 1.161-.728 1.362-.847.144.082.722.4 1.412.847 1.386-.433 1.781.477 2.34.909.747-.269 1.224.64 1.343 1.349 1.142-.038 1.023 1.148 1.3 1.939l.013.002z" fill="#211B24"/>
  <path d="M201.271 50.094s1.029-.075.991.383c-.038.458 0 1-.8 1.072l-.044 3.558.54.188c.241.725.343 1.49.3 2.253a26.941 26.941 0 01-1.795 3.714v7.485s1.148.922.075 1.726l.345.954v73.599h-5.942V63.471a2.843 2.843 0 00.32-2.81s-.979-2.284-1.218-3.182a6.244 6.244 0 01-.245-1.468l1.061-1.142-.088-1.305v-1.927s-2.635-1.844 0-2.114a8.952 8.952 0 006.494.075v.5l.006-.004z" fill="#8E867C"/>
  <path d="M198.686 46.486c.829.082 2.2.615 2.586 3.113a8.955 8.955 0 01-6.495-.075s.5-2.792 2.591-3.03a1.062 1.062 0 001.318-.007z" fill="#D2C0AA"/>
  <path d="M198.021 46.504c.22-.037.443-.043.665-.019a1.063 1.063 0 01-1.318.006 2.87 2.87 0 01.653.013zm-.69-4.204a.682.682 0 01.508-.664c.05.245.113.389.182.389.069 0 .138-.144.188-.39a.685.685 0 01.36 1.09.688.688 0 01-.373.24.305.305 0 00-.351 0 .687.687 0 01-.515-.664h.001zm.69 2.78c-.182 0-.339-.176-.439-.446a1.074 1.074 0 01.878 0c-.094.27-.257.446-.439.446z" fill="#B08B4F"/>
  <path d="M198.022 42.91a.286.286 0 01.176.056.515.515 0 01-.176.024.783.783 0 01-.176-.025.308.308 0 01.176-.056zm-.183-1.274a.58.58 0 01.182-.025.645.645 0 01.188.025c-.05.245-.113.389-.188.389s-.132-.144-.182-.39z" fill="#B08B4F"/>
  <path d="M197.839 41.636a7.05 7.05 0 01-.113-1.368c0-.973.138-1.757.295-1.757.157 0 .295.784.295 1.757.005.458-.031.916-.107 1.368a.645.645 0 00-.188-.025.574.574 0 00-.182.025zm.187 2.904a1.018 1.018 0 00-.439.095 1.963 1.963 0 01-.107-.64 1.3 1.3 0 01.37-1.029.792.792 0 00.176.024.52.52 0 00.176-.025 1.28 1.28 0 01.37 1.03c.003.218-.033.434-.107.64a1.028 1.028 0 00-.439-.094z" fill="#B08B4F"/>
  <path d="M198.021 46.504a2.869 2.869 0 00-.653-.013 1.05 1.05 0 01-.433-.86 1.101 1.101 0 01.646-1c.1.27.257.446.439.446s.345-.176.439-.446a1.083 1.083 0 01.653 1 1.055 1.055 0 01-.427.853 2.442 2.442 0 00-.665.02h.001z" fill="#B08B4F"/>
  <path d="M184.932 102.881s1.927-5.565-.841-6.74c-.799-2.038-.508-5.044-3.507-5.233 3.087.132 2.78 3.175 3.6 5.234 2.76 1.173.834 6.739.834 6.739v42.145h-.082v-42.145h-.004zm-7.096 13.244v28.897h-.063v-28.897h.063zm-.81-28.993c1.763.063 2.874 2.115 3.181 3.771h-.082c-.3-1.632-1.387-3.646-3.1-3.771h.001zm-.113-.002c-.269.012-.535.06-.791.144-.013-.006-.012-.013-.024-.019.262-.088.538-.131.814-.126l.001.001zm-2.59 38.118c-.395-.822-.251-2.045-1.732-2.114 1.569.031 1.406 1.279 1.814 2.114 1.368.477.414 2.73.414 2.73v17.048h-.082v-17.048s.959-2.253-.414-2.73zm1.719-37.978c-1.33-.935-2.354-2.66-4.807-2.774 2.491.075 3.527 1.807 4.864 2.755l-.056.02h-.001zm-3.683 35.858a1.904 1.904 0 00-1.412-1.512 1.852 1.852 0 011.494 1.512h-.082zm-1.957-1.48a1.38 1.38 0 01.389-.044 1.6 1.6 0 00-.37.056c-.006-.006-.013-.013-.019-.013v.001zm.174-37.133a7.887 7.887 0 00-1.55.29.08.08 0 00-.025-.02 8.143 8.143 0 011.575-.27z" fill="#995146"/>
  <path d="M169.003 84.785c-.013.007-.038.014-.05.02a152.252 152.252 0 00-2.792-1.57c.766.4 1.763.93 2.843 1.55h-.001zm1.337 36.875c-.672-.383-1.201-1.111-2.474-1.117 1.331-.025 1.859.709 2.536 1.1a.207.207 0 00-.062.013v.004zm-3.459-1.004a4.16 4.16 0 01.809-.113 5.75 5.75 0 00-.784.119c-.012 0-.012-.006-.025-.006zm-.06.006c-.766-.364-1.456-.665-1.845-.841.364.144 1.079.439 1.9.835-.019 0-.038.006-.057.006h.002z" fill="#995146"/>
  <path d="M163.186 26.433a1.736 1.736 0 011.048-1.6c.151.439.414.722.7.722s.546-.282.7-.722a1.748 1.748 0 11-2.453 1.6h.005zm1.455-6.42c.075.4.182.634.295.634.113 0 .213-.232.295-.634a1.112 1.112 0 01.578 1.752 1.111 1.111 0 01-.591.395.457.457 0 00-.571 0 1.11 1.11 0 01-.822-1.07 1.107 1.107 0 01.816-1.077z" fill="#B08B4F"/>
  <path d="M165.638 24.833c-.156.439-.414.722-.7.722s-.552-.282-.7-.722c.22-.098.459-.15.7-.151.241.002.479.054.7.15zm-.991-2.67a.456.456 0 01.571 0 1.094 1.094 0 01-.571 0zm.289-1.516c-.113 0-.22-.232-.295-.634a1.155 1.155 0 01.59 0c-.082.4-.182.634-.295.634z" fill="#B08B4F"/>
  <path d="M164.948 119.809c-.044-.019-.082-.038-.119-.05a.73.73 0 01.119.05z" fill="#995146"/>
  <path d="M164.641 20.014a11.089 11.089 0 01-.176-2.19c0-1.563.213-2.824.471-2.824s.47 1.261.47 2.824c.011.734-.048 1.467-.176 2.19a1.148 1.148 0 00-.59 0h.001zm.295 4.669a1.745 1.745 0 00-.7.151 2.832 2.832 0 01-.176-1.023 2.102 2.102 0 01.59-1.65 1.098 1.098 0 00.571 0 2.072 2.072 0 01.59 1.65c.005.348-.053.695-.169 1.023a1.788 1.788 0 00-.7-.15h-.006z" fill="#B08B4F"/>
  <path d="M164.785 119.74h-.006v-.006h.006v.006zm-.056.019c-.044.019-.094.038-.151.063.063-.025.113-.044.151-.063zm.093-37.245c.232.126.6.32 1.054.57-.515-.27-.9-.451-1.092-.545-.2.094-.608.295-1.155.577.49-.27.873-.477 1.111-.6.019-.006.025-.013.044-.02l.038.02v-.002zm-2.138 38.142c.816-.389 1.531-.69 1.9-.835-.389.176-1.073.477-1.839.841-.019 0-.044-.006-.056-.006h-.005z" fill="#995146"/>
  <path d="M161.698 120.543c-1.324-.025-1.852.709-2.529 1.1a1.45 1.45 0 00-.551-.031 1.868 1.868 0 00-1.494 1.512c-1.725-.044-1.55 1.254-1.964 2.12-1.368.477-.414 2.73-.414 2.73v17.048h-2.955v-28.897h25.982v28.897h-2.954v-17.044s.953-2.253-.414-2.73c-.408-.835-.245-2.082-1.814-2.114-.05-.005-.1-.007-.15-.006a1.86 1.86 0 00-1.494-1.512 1.38 1.38 0 00-.546.031c-.678-.4-1.2-1.13-2.535-1.1h-.176a4.16 4.16 0 00-.809.113c-.822-.4-1.537-.69-1.9-.835-.012 0-.019-.006-.031-.013a.882.882 0 00-.119-.05c-.006 0-.006-.006-.013-.006-.007 0-.019-.013-.031-.013v-.006h-.006v.006a.234.234 0 00-.05.019c-.038.019-.088.038-.151.063-.364.144-1.079.446-1.895.835a4.08 4.08 0 00-.816-.113l-.171-.004z" fill="#DDCCB2"/>
  <path d="M162.658 120.662a5.851 5.851 0 00-.791-.119c.276.01.549.048.816.113-.013 0-.019.006-.025.006zm-2.096-35.877c1.149-.653 2.2-1.21 2.968-1.618-.772.427-1.8 1-2.912 1.638l-.056-.02zm-1.391 36.862c.678-.4 1.2-1.13 2.529-1.1-1.274.006-1.795.734-2.466 1.117a.283.283 0 00-.063-.013v-.004z" fill="#995146"/>
  <path d="M164.83 119.759c.038.013.075.031.119.05.013.006.019.013.031.013.389.176 1.079.477 1.845.841.019 0 .038-.006.056-.006.018 0 .012.006.025.006a5.75 5.75 0 01.784-.119h.176c1.274.006 1.799.734 2.472 1.117a.202.202 0 01.063-.013c.006 0 .013.006.019.013a1.6 1.6 0 01.37-.056c.053.001.105.005.157.013a1.908 1.908 0 011.412 1.512h.082c.051-.001.101.001.151.006 1.481.069 1.337 1.292 1.732 2.114 1.374.477.414 2.73.414 2.73v17.048h-19.909V127.98s-.953-2.253.414-2.73c.414-.847.245-2.114 1.883-2.12h.081a1.919 1.919 0 011.412-1.512c.054-.008.108-.012.163-.013a1.6 1.6 0 01.37.056c0-.006.012-.013.019-.013a.283.283 0 01.063.013c.671-.383 1.192-1.111 2.466-1.117h.168c.267.022.531.061.791.119.006 0 .013-.006.025-.006.012 0 .038.006.057.006.765-.364 1.449-.665 1.838-.841.057-.025.107-.044.151-.063a.302.302 0 01.05-.019h.006c.012 0 .019.006.031.013.012.007.006.006.012.006h.001z" fill="#211B24"/>
  <path d="M159.17 121.648c-.006 0-.019.006-.019.013a1.6 1.6 0 00-.37-.056c.131-.003.262.012.389.044v-.001zm-.452-37.152a7.78 7.78 0 011.845.29.08.08 0 00-.025.018 7.937 7.937 0 00-1.82-.307zm-1.594 38.632a1.868 1.868 0 011.494-1.512 1.919 1.919 0 00-1.412 1.512h-.082z" fill="#995146"/>
  <path d="M157.94 35.77c2.478-5.56 4.875-7.5 6.999-7.587 2.115.088 4.517 2.027 6.999 7.586 0 0 3.533-.576 3.821 1.9l-.118.4a25.396 25.396 0 00-2.918-.709 61.418 61.418 0 00-7.975-.584 60.33 60.33 0 00-7.893.584 24.67 24.67 0 00-2.949.722c.289-2.472 4.041-2.309 4.041-2.309l-.007-.004z" fill="#D2C0AA"/>
  <path d="M153.472 87.251c1.33-.948 2.372-2.686 4.857-2.755-2.447.113-3.471 1.84-4.8 2.774a.648.648 0 01-.056-.019h-.001zm1.274 40.727s-.954-2.253.414-2.73c.414-.866.239-2.164 1.965-2.12-1.638.006-1.469 1.273-1.883 2.12-1.368.477-.414 2.73-.414 2.73v17.048h-.082v-17.048zm-1.299-40.708a2.935 2.935 0 00-.8-.144c.28-.005.558.038.822.126a.092.092 0 00-.025.019l.003-.001zm-1.712 28.855h.056v28.897h-.056v-28.897zm-2.297-25.222h-.082c.308-1.657 1.424-3.709 3.182-3.771-1.719.125-2.792 2.14-3.1 3.771z" fill="#995146"/>
  <path d="M148.981 90.909c.069 0 .138-.006.214-.006h.245c.307-1.632 1.381-3.646 3.1-3.771a.685.685 0 01.113-.006c.272.01.541.06.799.144a.088.088 0 01.025-.019.616.616 0 00.056.019c1.33-.935 2.353-2.66 4.8-2.774.126-.006.258-.006.389 0a7.926 7.926 0 011.82.307.088.088 0 01.024-.019l.057.02c1.11-.64 2.139-1.212 2.911-1.639a.79.79 0 01.1-.05c.546-.281.954-.482 1.155-.576.188.094.577.276 1.092.546.069.038.144.075.226.119.019.013.037.019.056.03.766.42 1.738.96 2.792 1.57.013-.007.038-.014.051-.02a.088.088 0 01.024.02 7.887 7.887 0 011.55-.29l.27-.019a4.2 4.2 0 01.389 0c2.453.113 3.477 1.84 4.807 2.774l.056-.019c.013.006.012.013.024.019a2.94 2.94 0 01.791-.144.772.772 0 00.113.006c1.713.126 2.8 2.14 3.1 3.77h.157c.106 0 .2 0 .3.007 3 .188 2.7 3.193 3.507 5.233 2.768 1.173.841 6.739.841 6.739v42.146h-7.099v-28.897H151.74v28.897h-7.1V102.88s-1.926-5.565.835-6.74c.8-2.038.515-5.043 3.508-5.232h-.002z" fill="#A38F7F"/>
  <path d="M149.194 90.903c-.075 0-.145.005-.214.005.069-.005.138-.005.214-.005zm-3.804 5.239c.816-2.058.508-5.1 3.589-5.233-2.993.188-2.711 3.193-3.508 5.233-2.76 1.173-.835 6.739-.835 6.739v42.145h-.087v-42.145s-1.92-5.565.84-6.74h.001z" fill="#995146"/>
  <path d="M301.838 124.998c-.119-.709-.59-1.618-1.349-1.349-.552-.432-.948-1.342-2.334-.909-.684-.446-1.26-.766-1.405-.847-.2.119-.741.446-1.362.847-1.387-.433-1.782.477-2.334.909-.753-.269-1.224.64-1.343 1.349-1.155-.038-1.036 1.148-1.312 1.939-.9.433-.276 2.5-.276 2.5v15.589h13.299v-15.591s.639-2.065-.27-2.5c-.282-.791-.163-1.977-1.312-1.939l-.002.002zm-22.298-1.349c-.551-.432-.947-1.342-2.333-.909-.69-.446-1.268-.766-1.406-.847-.2.119-.741.446-1.362.847-1.387-.433-1.782.477-2.339.909-.753-.269-1.224.64-1.343 1.349-1.148-.038-1.029 1.148-1.306 1.939-.91.433-.276 2.5-.276 2.5v15.589h13.298v-15.591s.634-2.065-.276-2.5c-.276-.791-.157-1.977-1.305-1.939-.12-.709-.599-1.618-1.348-1.349l-.004.002zm-168.443 1.349c-1.148-.038-1.035 1.148-1.305 1.939-.91.433-.282 2.5-.282 2.5v15.589h13.298v-15.591s.64-2.065-.27-2.5c-.282-.791-.163-1.977-1.305-1.939-.119-.709-.6-1.618-1.349-1.349-.552-.432-.953-1.342-2.34-.909-.621-.4-1.155-.728-1.362-.847-.144.082-.722.4-1.405.847-1.381-.433-1.782.477-2.334.909-.753-.269-1.223.64-1.342 1.349l-.004.002zm-78.29-3.105c-.139.082-.723.4-1.407.847-1.386-.433-1.781.477-2.333.909-.753-.269-1.23.64-1.35 1.349-1.147-.038-1.028 1.148-1.304 1.939-.91.433-.276 2.5-.276 2.5v15.589h13.298v-15.591s.634-2.065-.276-2.5c-.275-.791-.162-1.977-1.304-1.939-.12-.709-.6-1.618-1.343-1.349-.559-.432-.954-1.342-2.334-.909-.62-.4-1.167-.728-1.368-.847l-.004.002zm119.721-34.761c-1.756.063-2.873 2.115-3.181 3.77h-.163c-.075 0-.145 0-.213.007-3.081.131-2.774 3.174-3.589 5.233-2.761 1.173-.841 6.739-.841 6.739v42.145h40.464v-42.145s1.927-5.565-.834-6.74c-.815-2.057-.509-5.099-3.6-5.233-.1-.005-.194-.005-.3-.005h-.076c-.307-1.657-1.418-3.709-3.181-3.771a.772.772 0 01-.113-.006 2.422 2.422 0 00-.815.126c-1.337-.948-2.371-2.68-4.862-2.755a4.2 4.2 0 00-.389 0l-.27.02a8.143 8.143 0 00-1.575.27 72.254 72.254 0 00-2.841-1.55c-.019-.013-.038-.02-.057-.031-.082-.044-.157-.082-.226-.12-.458-.25-.822-.445-1.054-.57l-.038-.02c-.019.007-.025.014-.044.02-.238.126-.621.333-1.111.6a107.908 107.908 0 00-3.068 1.669 7.761 7.761 0 00-1.844-.29 4.205 4.205 0 00-.389 0c-2.485.07-3.527 1.807-4.857 2.755a2.453 2.453 0 00-.935-.12l.002.002zm-4.536-24.397c.571.527 1.1 1.776 2.071 1.525.709-.188 1.487-2.887 2.61-1.814.351.34 1.562 1.92 2.089 1.889a.354.354 0 00.2-.12c.615-.6 1.224-1.199 1.839-1.799a.335.335 0 01.577-.05c.627.615 1.255 1.23 1.883 1.839.056.073.14.12.231.132a.404.404 0 00.214-.1c.821-.665 1.555-2.115 2.773-1.883 1.035.188 1.568 1.393 2.252 2.052h.082c.69-.66 1.224-1.864 2.246-2.052 1.229-.232 1.963 1.217 2.779 1.883a.418.418 0 00.219.1c.09-.014.17-.06.226-.132.627-.61 1.255-1.224 1.882-1.839a.435.435 0 01.2-.132.441.441 0 01.376.182c.615.6 1.229 1.2 1.838 1.8a.352.352 0 00.207.119c.521.03 1.726-1.55 2.082-1.889 1.124-1.073 1.908 1.625 2.617 1.814.973.25 1.494-1 2.065-1.525 1.255-1.167 2.234.954 2.943 1.669.765-.76 1.526-1.52 2.283-2.284.571.006 1.292 1.33 1.594 1.713.935 1.2 1.513-.031 2.19-.879.147-.223.334-.416.552-.57 1.084-.69 2.245 1.41 2.835 2.013.164.176.9-.81.985-.929v81.558h5.942v-30.029H308.7v33.517H20.856v-33.517h107.819v30.029h5.942v-81.55c.082.119.821 1.1.991.929.59-.6 1.751-2.7 2.83-2.014a2.2 2.2 0 01.559.571c.671.847 1.242 2.077 2.184.879.3-.383 1.023-1.707 1.594-1.713l2.283 2.284c.715-.715 1.694-2.836 2.943-1.669l-.009-.008zm106.998 59.156c-.2.119-.74.446-1.362.847-1.387-.433-1.782.477-2.334.909-.753-.269-1.23.64-1.349 1.349-1.148-.038-1.029 1.148-1.304 1.939-.91.433-.277 2.5-.277 2.5v15.591h13.299v-15.591s.634-2.065-.276-2.5c-.276-.791-.157-1.977-1.305-1.939-.119-.709-.6-1.618-1.349-1.349-.552-.432-.948-1.342-2.334-.909-.684-.446-1.268-.766-1.405-.847h-.004zm-175.38 3.107c-.12-.709-.6-1.618-1.343-1.349-.56-.432-.954-1.342-2.334-.909-.622-.4-1.16-.728-1.362-.847-.138.082-.722.4-1.412.847-1.387-.433-1.782.477-2.334.909-.752-.269-1.23.64-1.348 1.349-1.142-.038-1.023 1.148-1.305 1.939-.91.433-.27 2.5-.27 2.5v15.589H81.2v-15.591s.628-2.065-.282-2.5c-.276-.791-.157-1.977-1.305-1.939l-.003.002zm150.743-1.349c-.753-.269-1.23.64-1.349 1.349-1.148-.038-1.029 1.148-1.3 1.939-.917.433-.283 2.5-.283 2.5v15.589h13.298v-15.591s.64-2.065-.275-2.5c-.27-.791-.157-1.977-1.3-1.939-.119-.709-.6-1.618-1.349-1.349-.552-.432-.954-1.342-2.334-.909a22.547 22.547 0 00-1.412-.841c-.207.119-.747.446-1.361.841-1.38-.433-1.781.477-2.333.909l-.002.002zm-15.567-.909c-.69-.446-1.268-.766-1.412-.847-.2.119-.74.446-1.361.847-1.381-.433-1.776.477-2.334.909-.747-.269-1.224.64-1.343 1.349-1.147-.038-1.028 1.148-1.304 1.939-.91.433-.276 2.5-.276 2.5v15.589h13.298v-15.591s.634-2.065-.276-2.5c-.282-.791-.163-1.977-1.305-1.939-.119-.709-.6-1.618-1.343-1.349-.559-.432-.954-1.342-2.34-.909l-.004.002zm-114.233 2.258c-.119-.709-.59-1.618-1.343-1.349-.552-.432-.948-1.342-2.334-.909-.62-.4-1.16-.728-1.361-.847-.145.082-.722.4-1.406.847-1.387-.433-1.782.477-2.334.909-.753-.269-1.23.64-1.349 1.349-1.148-.038-1.029 1.148-1.312 1.939-.9.433-.27 2.5-.27 2.5v15.589h13.299v-15.591s.633-2.065-.276-2.5c-.276-.791-.157-1.977-1.312-1.939l-.002.002zm-43.095-1.349c-.552-.432-.948-1.342-2.333-.909-.621-.4-1.161-.728-1.362-.847-.138.082-.722.4-1.405.847-1.393-.433-1.783.477-2.334.909-.759-.269-1.237.64-1.35 1.349-1.148-.038-1.029 1.148-1.312 1.939-.91.433-.27 2.5-.27 2.5v15.589h13.299v-15.591s.627-2.065-.282-2.5c-.276-.791-.157-1.977-1.305-1.939-.119-.709-.6-1.618-1.343-1.349l-.003.002z" fill="#BCAD9A"/>
  <path d="M150.067 64.262c-.973.25-1.5-1-2.071-1.525-1.249-1.167-2.228.954-2.943 1.669l-2.283-2.284c-.571.006-1.293 1.33-1.594 1.713-.941 1.2-1.512-.031-2.184-.879a2.175 2.175 0 00-.558-.57c-1.079-.69-2.24 1.41-2.829 2.013-.169.176-.91-.809-.991-.929a2.843 2.843 0 01-.32-2.81s.979-2.284 1.218-3.182c.143-.477.228-.97.25-1.468l-1.059-1.142.088-1.305v.34c1.512-4.662 5.245-8.49 9.135-10.93a41.317 41.317 0 019.97-4.895 24.67 24.67 0 012.949-.722 60.346 60.346 0 017.893-.584c2.668.022 5.332.217 7.975.584.986.179 1.96.416 2.918.71a41.547 41.547 0 019.998 4.905c3.891 2.441 7.63 6.269 9.142 10.93v-.339l.088 1.305-1.061 1.142c.023.497.105.99.245 1.468.239.9 1.218 3.181 1.218 3.181a2.84 2.84 0 01-.32 2.811c-.081.119-.822 1.1-.985.929-.59-.6-1.751-2.7-2.835-2.014a2.158 2.158 0 00-.552.571c-.678.847-1.255 2.077-2.19.879-.3-.383-1.023-1.707-1.594-1.713-.76.765-1.521 1.527-2.283 2.284-.709-.715-1.688-2.836-2.943-1.669-.571.527-1.092 1.776-2.065 1.525-.709-.188-1.493-2.887-2.617-1.814-.356.339-1.561 1.92-2.082 1.889a.35.35 0 01-.207-.12c-.609-.6-1.223-1.199-1.838-1.799a.447.447 0 00-.376-.182.433.433 0 00-.2.132c-.628.615-1.255 1.23-1.883 1.839a.351.351 0 01-.226.132.417.417 0 01-.219-.1c-.816-.665-1.549-2.115-2.78-1.883-1.022.188-1.556 1.393-2.246 2.052h-.082c-.684-.66-1.217-1.864-2.253-2.052-1.218-.232-1.951 1.217-2.773 1.883a.404.404 0 01-.213.1.35.35 0 01-.232-.132c-.628-.61-1.255-1.224-1.883-1.839a.337.337 0 00-.577.05c-.615.6-1.224 1.2-1.839 1.8a.353.353 0 01-.2.119c-.527.03-1.737-1.55-2.088-1.889-1.123-1.073-1.9 1.625-2.611 1.814h-.002zM132.2 46.492c2.077.238 2.592 3.031 2.592 3.031a8.955 8.955 0 01-6.495.075c.389-2.49 1.751-3.025 2.579-3.113.188.153.423.235.665.232a1.06 1.06 0 00.659-.226v.001z" fill="#D2C0AA"/>
  <path d="M131.55 46.504c.216-.029.435-.033.652-.013a1.06 1.06 0 01-.659.226 1.034 1.034 0 01-.665-.232 2.48 2.48 0 01.672.02zm.684-4.204a.687.687 0 01-.514.666.305.305 0 00-.352 0 .677.677 0 01-.515-.665.689.689 0 01.508-.665c.044.245.113.389.182.389.069 0 .138-.144.182-.39a.68.68 0 01.508.666h.001zm-.691 2.24c.152-.001.301.03.439.094-.1.27-.258.446-.439.446s-.339-.176-.439-.446c.138-.063.288-.095.439-.094z" fill="#B08B4F"/>
  <path d="M131.368 42.965a.308.308 0 01.352 0 .54.54 0 01-.176.026.737.737 0 01-.176-.026zm-.007-1.329a.672.672 0 01.364 0c-.044.245-.113.389-.182.389-.069 0-.138-.144-.182-.39z" fill="#B08B4F"/>
  <path d="M131.838 40.268a7.05 7.05 0 01-.113 1.368.672.672 0 00-.364 0 7.05 7.05 0 01-.113-1.368c0-.973.131-1.757.295-1.757.164 0 .295.784.295 1.757zm.251 3.727a1.79 1.79 0 01-.106.64 1.071 1.071 0 00-.879 0 1.812 1.812 0 01-.107-.64 1.3 1.3 0 01.37-1.029.744.744 0 00.176.024.54.54 0 00.176-.025 1.279 1.279 0 01.37 1.03z" fill="#B08B4F"/>
  <path d="M131.983 44.634a1.082 1.082 0 01.653 1 1.038 1.038 0 01-.433.86 2.867 2.867 0 00-.652.013 2.497 2.497 0 00-.671-.019 1.056 1.056 0 01-.421-.853 1.103 1.103 0 01.647-1c.1.27.257.446.439.446s.339-.176.439-.446h-.001z" fill="#B08B4F"/>
  <path d="M128.675 100.59v14.407H20.855V100.59h107.82zm0-2.271v2.271H20.855v-2.271h107.82z" fill="#A38F7F"/>
  <path d="M127.302 50.477c-.038-.458 1-.383 1-.383v-.5a8.952 8.952 0 006.494-.075c2.635.27 0 2.114 0 2.114v1.927l-.088 1.305 1.06 1.142c-.023.498-.107.99-.251 1.468-.239.9-1.218 3.181-1.218 3.181a2.84 2.84 0 00.32 2.811v81.555h-5.942V90.809c.006-6.466.008-12.927.006-19.382l.339-.954c-1.073-.8.074-1.726.074-1.726v-7.485a27.783 27.783 0 01-1.794-3.714 6.172 6.172 0 01.307-2.253l.534-.188-.038-3.558c-.8-.075-.765-.614-.8-1.072h-.003z" fill="#8E867C"/>
  <path d="M111.101 124.997c.119-.709.59-1.619 1.342-1.349.552-.432.954-1.342 2.334-.909.684-.446 1.261-.766 1.406-.847.207.119.74.446 1.362.847 1.386-.433 1.788.477 2.34.909.753-.27 1.23.64 1.349 1.349 1.142-.038 1.023 1.148 1.305 1.939.91.433.27 2.5.27 2.5v15.592h-13.298v-15.594s-.627-2.065.283-2.5c.27-.791.156-1.977 1.3-1.939l.007.002zm-14.224-2.258c1.387-.433 1.782.477 2.334.909.753-.269 1.224.64 1.343 1.349 1.155-.038 1.036 1.148 1.312 1.939.91.433.276 2.5.276 2.5v15.592H88.843v-15.594s-.634-2.065.27-2.5c.282-.791.163-1.977 1.312-1.939.12-.709.6-1.618 1.35-1.349.551-.432.947-1.342 2.333-.909.684-.446 1.26-.766 1.406-.847.2.119.74.446 1.362.847l.001.002z" fill="#211B24"/>
  <path d="M85.132 46.554c.294 0 .552-.282.709-.715a1.747 1.747 0 11-1.807 2.952 1.746 1.746 0 01.398-2.952c.157.433.414.715.7.715zm-.295-5.534c.082.4.182.629.295.629.113 0 .22-.232.295-.628a1.106 1.106 0 01-.006 2.14.456.456 0 00-.57 0 1.109 1.109 0 01-.014-2.14z" fill="#B08B4F"/>
  <path d="M74.364 58.778a29.003 29.003 0 0121.81.306c7.166 2.956 13.139 8.665 15.292 16.578.877 3.62.905 7.396.082 11.03-.031.163-.321 1.017-.621 1.945-21.164-4.832-49.594.044-49.594.044a24.746 24.746 0 012.108-20.587 22.832 22.832 0 0110.923-9.317z" fill="#D2C0AA"/>
  <path d="M84.429 45.84a1.729 1.729 0 011.412 0c-.157.433-.414.715-.708.715s-.546-.282-.7-.715h-.004zm.42-2.68a.456.456 0 01.57 0 1.071 1.071 0 01-.57 0zm-.012-2.14a1.15 1.15 0 01.295-.043c.1 0 .199.016.295.044-.075.4-.182.628-.295.628-.113 0-.213-.232-.295-.628z" fill="#B08B4F"/>
  <path d="M85.132 40.977a1.15 1.15 0 00-.295.044 11.657 11.657 0 01-.176-2.19c0-1.563.213-2.83.47-2.83.259 0 .47 1.268.47 2.83.014.734-.044 1.468-.175 2.19a1.071 1.071 0 00-.294-.044zm-.873 3.833a2.1 2.1 0 01.59-1.65 1.07 1.07 0 00.571 0 2.073 2.073 0 01.59 1.65c.004.35-.053.699-.169 1.03a1.73 1.73 0 00-1.412 0 3.016 3.016 0 01-.169-1.03h-.001z" fill="#B08B4F"/>
  <path d="M78.142 56.776c2.473-5.566 4.875-7.51 6.99-7.592 2.12.082 4.523 2.027 6.999 7.592 0 0 3.752-.17 4.04 2.308a29.004 29.004 0 00-21.81-.306l-.044-.107c.282-2.48 3.822-1.9 3.822-1.9l.003.005z" fill="#D2C0AA"/>
  <path d="M78.267 123.648c.747-.269 1.224.64 1.343 1.349 1.147-.038 1.029 1.148 1.305 1.939.91.433.282 2.5.282 2.5v15.592H67.898v-15.594s-.64-2.065.27-2.5c.282-.791.163-1.977 1.305-1.939.119-.709.6-1.618 1.349-1.349.552-.432.948-1.342 2.334-.909.69-.446 1.273-.766 1.411-.847.2.119.74.446 1.362.847 1.381-.433 1.776.477 2.334.909l.004.002z" fill="#211B24"/>
  <path d="M61.333 88.682s28.43-4.876 49.594-.044a14.383 14.383 0 00-.747 2.741c-.565-.213-1.01-.6-1.606-.345-.634.257-2.027 1.983-2.611 1.864a.765.765 0 01-.326-.195c-.389-.326-1.273-1.4-1.762-1.48-.358-.056-.684.306-.985.54-.577.42-1.267 1.216-1.9 1.047a4.94 4.94 0 01-1.726-1.166c-.615-.5-.684-.484-1.236.012-.578.521-1.142 1.054-1.713 1.588a.242.242 0 01-.144.082c-.5-.013-1.65-1.575-2-1.913-.608-.577-.652-.471-1.223.025-.571.495-1.4 1.568-2.115 1.461a4.543 4.543 0 01-1.737-.872c-.621-.4-.779-.683-1.393-.3a15.344 15.344 0 00-1.857 1.644 28.537 28.537 0 01-2.548-1.87.315.315 0 00-.156-.069.271.271 0 00-.176.094c-.671.622-1.34 1.237-2.008 1.845-.226.207-1.217-.79-1.361-.916-.61-.533-.935-1.2-1.65-.527a7.625 7.625 0 01-1.688 1.393c-.59.295-.634.006-1.073-.5-.508-.57-1.073-1.77-1.989-1.656-.948.118-1.788 1.6-2.434 2.2-.107.081-1.964-1.92-2.4-1.858-.828.108-1.99 1.167-2.73 1.6-.47-.282-.934-.558-1.4-.835-.332-.195-.664-.452-1.01-.609-.927-.413-2.032.847-2.766 1.424.41-.447.76-.944 1.042-1.48a4.358 4.358 0 01-.157-2.931l-.01.006z" fill="#8E867C"/>
  <path d="M57.461 123.648c.747-.269 1.224.64 1.343 1.349 1.148-.038 1.03 1.148 1.3 1.939.91.433.282 2.5.282 2.5v15.592H47.088v-15.594s-.64-2.065.27-2.5c.282-.791.163-1.977 1.312-1.939.112-.709.59-1.618 1.348-1.349.552-.432.941-1.342 2.334-.909.684-.446 1.267-.766 1.406-.847.2.119.74.446 1.362.847 1.387-.433 1.781.477 2.333.909l.008.002z" fill="#211B24"/>
  <path d="M48.752 83.774c-1.192.471-2.773 2.215-2.691 3.081a22.297 22.297 0 00-12.738 0 6.156 6.156 0 00-1.412-3.08c7.712-3.17 16.841 0 16.841 0z" fill="#BEB5A1"/>
  <path d="M45.979 70.554h-.006a31.31 31.31 0 00-11.866 0c.552-6.57 5.855-6.255 5.855-6.255a5.39 5.39 0 014.98 2.29c.369.59.65 1.23.836 1.9.163.514.056 1.455.2 2.064v.001z" fill="#D2C0AA"/>
  <path d="M40.013 62.692c.169 0 .32-.163.414-.42a1.01 1.01 0 01.615.941 1.032 1.032 0 11-1.45-.94c.094.256.25.42.42.42z" fill="#B08B4F"/>
  <path d="M40.427 62.272c-.094.257-.245.42-.414.42-.17 0-.326-.163-.421-.42a.96.96 0 01.42-.094c.144 0 .286.031.415.094zm-.413-2.472c.063 0 .125-.139.168-.37a.649.649 0 010 1.255.3.3 0 00-.169-.056.275.275 0 00-.17.056.647.647 0 01-.006-1.257c.051.233.113.37.176.37v.002z" fill="#B08B4F"/>
  <path d="M40.013 59.404a.479.479 0 01.169.025c-.044.232-.108.37-.17.37-.062 0-.126-.138-.175-.37a.541.541 0 01.175-.025z" fill="#B08B4F"/>
  <path d="M39.835 59.433a7.051 7.051 0 01-.1-1.3c0-.916.12-1.663.276-1.663.157 0 .276.747.276 1.663.006.435-.03.87-.107 1.3a.48.48 0 00-.169-.025.541.541 0 00-.176.025zm.694 2.23c.001.208-.033.414-.1.61a.962.962 0 00-.835 0 2.007 2.007 0 01-.094-.61 1.247 1.247 0 01.344-.979.58.58 0 00.34 0 1.24 1.24 0 01.345.98z" fill="#B08B4F"/>
  <path d="M33.323 86.851a22.296 22.296 0 0112.738 0c1.029.559 0 1.663 0 1.663a20.787 20.787 0 00-12.73 0 6.396 6.396 0 00-.007-1.663z" fill="#BEB5A1"/>
  <path d="M108.573 91.034c.6-.25 1.042.132 1.606.345.474.537.993 1.032 1.55 1.481.678-1.01 1.229-2.045 2.599-1.9.627.064 2.5 1.663 2.5 2.165.213-3.984 5.659-1.21 5.088.013 1.387-2.955 3.213-3.05 4.807-.03a4.052 4.052 0 011.951-2.3v7.51H20.857s-10.428-1.983-16.59.653v-7.838a1.753 1.753 0 011.663-1.825 30.945 30.945 0 0114.926 0h.188v1.424s1.11.954 2.14 1.744a12.959 12.959 0 013.086-1.744s1.581 1.191 2.692 2.064c.314-1.349 2.849-1.9 2.849-1.9l1.16 1.042.345.3v-.05c.209.198.463.34.74.414.515.013 1.487-.928 1.92-1.217.6-.4.659-.413 1.268.088.144.12 1.682 1.45 1.726 1.45a10.314 10.314 0 012.315-1.663c.815-.294 1.424.29 2 .753.357.33.737.634 1.136.91l1.644-1.4.79-.947c1 .753 1.915 1.737 2.937 2.415a3.898 3.898 0 011.017-1.349c.91-.709 1.418-.984 2.31-.32a13.162 13.162 0 011.964 1.82c.088-1.236 1.983-2.007 1.983-2.007l3.325 2.007a.55.55 0 01.063-.05c.734-.577 1.839-1.838 2.767-1.424.345.157.678.414 1.01.61.464.275.929.551 1.4.834.74-.433 1.9-1.492 2.728-1.6.44-.063 2.3 1.94 2.4 1.857.646-.6 1.487-2.082 2.435-2.2.915-.112 1.48 1.086 1.988 1.657.44.5.483.791 1.073.5a7.639 7.639 0 001.688-1.393c.715-.678 1.04-.006 1.65.527.145.126 1.136 1.123 1.361.916a440.59 440.59 0 002.008-1.845.27.27 0 01.176-.094.315.315 0 01.157.07c.813.667 1.662 1.29 2.543 1.863a15.336 15.336 0 011.857-1.644c.615-.382.772-.1 1.393.3.509.413 1.102.71 1.737.872.715.107 1.538-.96 2.115-1.462.577-.501.615-.6 1.224-.025.352.34 1.506 1.9 2 1.914a.242.242 0 00.144-.082c.57-.533 1.136-1.067 1.712-1.587.553-.5.622-.516 1.237-.014a4.944 4.944 0 001.725 1.167c.634.17 1.324-.628 1.9-1.048.3-.231.628-.6.985-.54.49.082 1.374 1.155 1.762 1.481a.758.758 0 00.327.195c.583.12 1.975-1.606 2.609-1.864l.008.001z" fill="#A38F7F"/>
  <path d="M34.183 80.054v-6.89c-.709-.074-1.951-.256-2.333-.96-.34-.645-.164-.413.35-.783a10.95 10.95 0 011.908-.866 31.309 31.309 0 0111.865 0h.006a.97.97 0 00.213.452c.89.929 2.164.4 2.617 2.008-.9.452-2.278-.031-2.692 1.28a2.59 2.59 0 00-.082.8c.006.389-.107 5.099.019 5.113a8.966 8.966 0 012.378.8c1.267.238.708 2.133.32 2.773 0 0-9.13-3.168-16.841 0a6.142 6.142 0 00-1.286-1.191l.4-1.738c0-.4 3.162-.791 3.162-.791l-.004-.007zM36.843 76a16.952 16.952 0 00-.168 4.148h2.3V76s-.916-2.8-2.134 0h.003zm7.574-.188v3.671l.872.7v-4.37s-.113-2.208-.872 0zm-1.236 4.336V76s-.91-2.8-2.14 0a16.818 16.818 0 00-.157 4.148h2.297zm-8.157.038l.872-.7v-3.673c-.753-2.208-.872 0-.872 0v4.374-.001zm-1.694 8.333a20.787 20.787 0 0112.73 0v3.005l-1.644 1.4a10.45 10.45 0 01-1.135-.91c-.57-.463-1.18-1.047-2-.752a10.313 10.313 0 00-2.316 1.662c-.044 0-1.581-1.33-1.725-1.45-.61-.5-.666-.489-1.268-.088-.433.29-1.406 1.23-1.92 1.217a1.715 1.715 0 01-.74-.414v-3.588c.006-.031.006-.056.012-.082h.005z" fill="#BEB5A1"/>
  <path d="M31.41 122.739c.684-.446 1.268-.766 1.406-.847.2.119.747.446 1.368.847 1.38-.433 1.776.477 2.334.909.747-.27 1.224.64 1.343 1.349 1.142-.038 1.029 1.148 1.305 1.939.91.433.276 2.5.276 2.5v15.592h-13.3v-15.594s-.634-2.065.276-2.5c.276-.791.157-1.977 1.305-1.939.119-.709.6-1.619 1.349-1.349.552-.432.948-1.342 2.334-.909l.003.002z" fill="#211B24"/>
  <path d="M16.301 47.998a6.846 6.846 0 015.22 8.069s-5.799-2.692-14.563.163v-1.192l.634-.075c0-6.136 4.248-7.1 6.809-7.121a.956.956 0 00.652.013c.419.017.836.065 1.248.144v-.001z" fill="#D2C0AA"/>
  <path d="M4.267 98.972c6.161-2.636 16.589-.653 16.589-.653v2.271s-10.114-1.718-16.747.276c-1.58-1.267.157-1.9.157-1.9l.001.006z" fill="#A38F7F"/>
  <path d="M4.11 100.866c6.632-2 16.747-.276 16.747-.276v47.924H4.11v-47.648z" fill="#A38F7F"/>
  <path d="M14.093 43.712a.646.646 0 01.483-.62c.05.226.107.364.169.364.062 0 .125-.139.176-.364a.64.64 0 01.483.62.655.655 0 01-.483.634.308.308 0 00-.176-.055.278.278 0 00-.17.056.661.661 0 01-.482-.635zm.237 2.215a1.035 1.035 0 01.835 0c-.093.257-.244.427-.42.427-.174 0-.32-.169-.413-.427h-.001z" fill="#B08B4F"/>
  <path d="M14.92 43.093c-.05.226-.106.364-.175.364-.07 0-.12-.138-.17-.364a.476.476 0 01.17-.03.46.46 0 01.176.03z" fill="#B08B4F"/>
  <path d="M14.745 43.06a.483.483 0 00-.17.032 7.096 7.096 0 01-.1-1.3c0-.922.12-1.67.27-1.67.152 0 .284.748.284 1.67.004.436-.031.87-.107 1.3a.456.456 0 00-.176-.031h-.001zm-.417 2.87a1.823 1.823 0 01-.094-.609 1.255 1.255 0 01.339-.973.59.59 0 00.345 0 1.232 1.232 0 01.345.973c.001.208-.032.413-.1.61a1.036 1.036 0 00-.835 0z" fill="#B08B4F"/>
  <path d="M4.612 71.574c9.437-3.84 19.915 0 19.915 0-3.081 1.43-3.483 5.383-3.483 5.383v12.349h-.188a30.947 30.947 0 00-14.926 0V75.699a6.783 6.783 0 00-1.469-4.065l.15-.056v-.004z" fill="#BEB5A1"/>
  <path d="M14.745 46.354c.176 0 .326-.169.42-.427a1.031 1.031 0 01-.113 1.927c-.2-.006-.42-.019-.652-.013a1.03 1.03 0 01-.07-1.914c.095.257.246.427.415.427z" fill="#B08B4F"/>
  <path d="M8.821 62.178c-.758-2.867-.877 0-.877 0l-.778-.013a10.933 10.933 0 00-.3-3.389c-.18.052-.366.074-.552.063a1.229 1.229 0 01-.527-.263c-.979-.678-2.849-1.412-1-1.952a13.427 13.427 0 012.177-.4c8.766-2.855 14.563-.163 14.563-.163l.716.477c.84.5 2.127 1.1 2.466 2.108-.515.364-2.93.288-2.943 1.216v7.674h-1.124v-5.364s-.113-2.867-.872 0v.54h-1.368a2.897 2.897 0 00-.044-.52 2.206 2.206 0 00-.451-.867 1.253 1.253 0 00-1.186-.6 2.001 2.001 0 00-1.355 1.443 6.852 6.852 0 00-.2 1.274 20.743 20.743 0 00-.132 2.165h-1.732v-1.13c0-.427.006-.86.006-1.286a3.9 3.9 0 00-.07-1.21 2.4 2.4 0 00-.689-.96 1.019 1.019 0 00-1.355-.089 3.348 3.348 0 00-1.11 2.429 19.3 19.3 0 00-.145 2.165H8.83v-3.357l-.008.01z" fill="#BEB5A1"/>
  <path d="M7.943 62.178v5.678l.878-.915v-1.406h1.111c-.002.457.028.914.088 1.368 0 .012.006.024.006.037h3.27v-1.323h1.732c-.006.442.02.884.074 1.323h3.27v-3.39c0-.276.025-.552.025-.828h1.368v4.223l.872.915v-.313h1.124l2.214.237.791 1.192c-.03.87-.11 1.739-.239 2.6 0 0-10.478-3.84-19.914 0l-.151.056A7.909 7.909 0 003 70.119v-2.17l3.8-.954c.063-1.443.313-3.17.37-4.826l.777.013-.004-.004z" fill="#8E867C"/>
</svg>
