<svg width="330" height="198" viewBox="0 0 330 198" xmlns="http://www.w3.org/2000/svg">
  <defs/>
  <path d="M165 31.238c62.408 0 113 62.332 113 120.757 0 0-50.592 30.108-113 30.108S52 151.995 52 151.995C52 93.57 102.592 31.238 165 31.238z" fill="#EDEDED"/>
  <path d="M273.853 146.647l-108.851 7.357v-2.735l105.523-5.734h3.328v1.112z" fill="#9E8B7B"/>
  <path d="M270.526 145.536l-105.523 5.734v-1.768l102.7-4.671h2.829v.7l-.006.005z" fill="#B39D84"/>
  <path d="M267.705 144.833l-102.7 4.671v-2.067l98.267-3.31h4.435v.706h-.002z" fill="#9E8B7B"/>
  <path d="M263.269 144.132l-98.267 3.31v-1.659l96.046-2.46h2.221v.809z" fill="#B39D84"/>
  <path d="M261.053 140.869v2.449h-.007L165 145.778v-2.888l42.427-1.012 15.33-.361 3.863-.1 23.235-.552 11.198.004z" fill="#9E8B7B"/>
  <path d="M211.264 87.745a6.422 6.422 0 011.31 2.52c.621 2.218 1.411 4.381 2.045 6.587.338 1.18.658 2.36.959 3.54.331 1.306.655 2.607.972 3.917.338 1.42.673 2.842 1.006 4.266.337 1.5.675 3 1 4.5.331 1.524.648 3.055.965 4.584.317 1.529.608 3.036.9 4.551.27 1.461.547 2.921.8 4.385.244 1.362.474 2.723.689 4.083.189 1.218.371 2.437.526 3.659.128 1.028.25 2.064.338 3.1.074.8.128 1.6.128 2.4a6.56 6.56 0 01-.142 1.675l-15.33.361s-4.158-32.786 2.741-54.18a.8.8 0 011.094.048l-.001.004z" fill="#25130F"/>
  <path d="M222.781 141.425a6.56 6.56 0 00.122-1.588c0-.8-.053-1.607-.127-2.4a77.879 77.879 0 00-.338-3.1c-.155-1.222-.338-2.44-.526-3.659-.216-1.36-.446-2.721-.689-4.083-.25-1.464-.526-2.924-.8-4.385-.297-1.515-.597-3.032-.9-4.551a540.03 540.03 0 00-.965-4.584c-.324-1.5-.662-3-1-4.5a1330.95 1330.95 0 00-1.006-4.266c-.317-1.31-.641-2.611-.972-3.917a149.557 149.557 0 00-.958-3.54c-.635-2.206-1.425-4.369-2.045-6.587a6.425 6.425 0 00-1.31-2.52.8.8 0 00-1.094-.048l.122-.373c2.187-7.07 14.311 33.675 16.329 54.045v.052l-3.861.1a.367.367 0 00.02-.087l-.002-.009z" fill="#6C5853"/>
  <path d="M207.889 62.728l-2.835-1.167c-.108-1.515-.223-3.028-.324-4.54h.628s-.986-4.694.9-3.925c1.886.769 1.911 4.2 1.168 5.568l.459.317v3.742l.004.005z" fill="#887862"/>
  <path d="M205.053 61.566l2.835 1.167 3.591 1.472 2.18.9 10.443-3.2 11.611 5.222 14.143 73.748-23.236.552v-.052c-2.019-20.37-14.143-61.116-16.33-54.045-.04.124-.081.246-.121.373-6.9 21.394-2.741 54.18-2.741 54.18l-42.427 1.012V35.97l21.717 10.1.675 8.25 6.1 2.5 4.5 1.849 1.736.71 3.976 1.635 1.357.552h-.009z" fill="#BCAD9A"/>
  <path d="M203.697 56.954v4.06l-3.976-1.635v-4.806c0 .135.5.242.587.25-.229-1.413-1.262-4.579 1.4-4.108 3.153.564 1.613 5.536 1.613 5.536l.372.7.004.003zm-10.207-.136a26.712 26.712 0 00-.587-4.353c.383.144.746.336 1.081.571a4.686 4.686 0 01-.614-1.9 3.225 3.225 0 01.283-1.75 2.028 2.028 0 011.364-1.079 2.352 2.352 0 011.755.5 3.95 3.95 0 011.593 2.742 4.423 4.423 0 01-.918 2.96.89.89 0 00.554.2l-.014 3.956-4.5-1.849.003.002z" fill="#887862"/>
  <path d="M189.697 22.418a40.01 40.01 0 0113.238 12.079 46.506 46.506 0 016.278 13.373c-.316-.782-6.014-13.349-44.208-13.9-38.2.548-43.906 13.116-44.222 13.9.074-.266.155-.528.236-.79h.007c1.418-2.091 22.439-31.814 68.673-24.66l-.002-.002z" fill="#C2B09E"/>
  <path d="M165.003 16.001c8.458.83 17.186 2.179 24.693 6.417-46.234-7.155-67.255 22.568-68.673 24.659a46.723 46.723 0 015.124-11.191 39.959 39.959 0 0111.874-12.083 49.301 49.301 0 0120.265-7.191c2.228-.306 4.469-.445 6.717-.6V16v.001z" fill="#B7A698"/>
  <path d="M165.003 151.27v2.735l-108.858-7.357v-1.111h3.328l105.531 5.734-.001-.001zm0-8.381v2.888l-96.06-2.46v-2.448h11.192l6.393.151 16.849.4 3.854.1 15.337.361 42.433 1.012.002-.004z" fill="#9E8B7B"/>
  <path d="M165.003 62.725v80.161l-42.434-1.012s4.165-32.786-2.741-54.18h-.007c-.04-.123-.074-.246-.115-.369-2.187-7.071-14.311 33.675-16.33 54.045v.052l-16.85-.4v-.151s10.174-46.688 31.964-61.6c21.79-14.912 46.511-16.544 46.511-16.544l.002-.002z" fill="#AA9581"/>
  <path d="M165.002 35.97v26.759s-24.72 1.635-46.511 16.544c-21.791 14.909-31.963 61.6-31.963 61.6v.151l-6.393-.151 14.143-73.748 11.617-5.222 10.444 3.2 2.179-.9 3.592-1.472 2.835-1.167 1.35-.552 3.983-1.635 1.728-.71 4.51-1.849 6.089-2.5.675-8.25 21.723-10.1-.001.002z" fill="#A38F7F"/>
  <path d="M136.341 49.387c.262.544.361 1.151.284 1.75a4.583 4.583 0 01-.608 1.9 4.841 4.841 0 011.08-.571 26.057 26.057 0 00-.581 4.353l-4.509 1.849-.013-3.956a.905.905 0 00.56-.2 4.346 4.346 0 01-.912-2.96 3.89 3.89 0 011.587-2.742 2.323 2.323 0 011.749-.5 1.998 1.998 0 011.363 1.079v-.002zm-6.059 5.186v4.806l-3.983 1.635v-4.06l.378-.7s-1.546-4.972 1.614-5.536c2.66-.472 1.627 2.7 1.4 4.108.088-.008.587-.115.587-.25l.004-.003zm-5.639 2.453h.627c-.1 1.512-.216 3.024-.324 4.54l-2.835 1.167v-3.747l.459-.317c-.743-1.369-.736-4.8 1.161-5.568 1.897-.768.912 3.925.912 3.925z" fill="#887862"/>
  <path d="M118.736 87.745a.8.8 0 011.087-.052h.007c6.906 21.394 2.741 54.18 2.741 54.18l-15.337-.361c-.007-.028-.014-.055-.02-.087a7.352 7.352 0 01-.122-1.588c.007-.8.061-1.607.128-2.4a68.14 68.14 0 01.344-3.1c.155-1.222.337-2.44.526-3.659.209-1.361.446-2.722.682-4.083.257-1.467.527-2.928.81-4.385.284-1.515.584-3.032.9-4.551.3-1.528.628-3.06.959-4.584.331-1.5.655-3 1-4.5.324-1.424.659-2.846 1.006-4.266.311-1.31.635-2.611.972-3.917.3-1.183.628-2.361.959-3.54.641-2.206 1.417-4.369 2.045-6.587a6.33 6.33 0 011.31-2.52h.003z" fill="#25130F"/>
  <path d="M125.27 57.025h-.628s.979-4.694-.912-3.925c-1.891.769-1.9 4.2-1.161 5.568l-.459.317v3.746l-3.591 1.472a41.541 41.541 0 01.1-4.393 56.78 56.78 0 011.8-10.683l.344-1.227c.008-.007.008-.016.014-.032.317-.782 6.021-13.349 44.222-13.9 38.194.548 43.892 13.115 44.209 13.9a.043.043 0 01.01.014.036.036 0 01.004.018l.1.342a57.046 57.046 0 012.025 11.278 39.99 39.99 0 01.128 4.683l-3.591-1.472v-3.746l-.459-.317c.743-1.369.729-4.8-1.168-5.568-1.897-.768-.9 3.925-.9 3.925h-.628c.1 1.512.216 3.024.324 4.54l-1.357-.552v-4.06l-.371-.7s1.539-4.972-1.614-5.536c-2.667-.472-1.634 2.695-1.4 4.108-.088-.008-.587-.115-.587-.25v4.806l-1.735-.71.014-3.956a.89.89 0 01-.554-.2 4.423 4.423 0 00.918-2.96 3.943 3.943 0 00-1.593-2.742 2.358 2.358 0 00-1.755-.5 2.025 2.025 0 00-1.364 1.079 3.244 3.244 0 00-.283 1.75c.066.67.276 1.318.614 1.9a4.842 4.842 0 00-1.08-.571 26.7 26.7 0 01.587 4.353l-6.1-2.5-.675-8.25-21.716-10.1-21.723 10.1-.675 8.25-6.089 2.5a25.95 25.95 0 01.581-4.353 4.817 4.817 0 00-1.08.571 4.6 4.6 0 00.608-1.9 3.133 3.133 0 00-.283-1.75 1.998 1.998 0 00-1.364-1.079 2.333 2.333 0 00-1.749.5 3.883 3.883 0 00-1.586 2.742 4.346 4.346 0 00.912 2.96.908.908 0 01-.561.2l.013 3.956-1.728.71v-4.806c0 .135-.5.242-.587.25.223-1.413 1.255-4.579-1.4-4.108-3.159.564-1.613 5.536-1.613 5.536l-.378.7v4.06l-1.35.552c.108-1.515.223-3.028.324-4.54h-.004z" fill="#BEB5A1"/>
  <path d="M107.214 141.425l.02.087-3.854-.1v-.052c2.019-20.37 14.142-61.116 16.33-54.045.04.124.074.246.115.369a.8.8 0 00-1.087.052 6.358 6.358 0 00-1.31 2.52c-.628 2.218-1.4 4.381-2.045 6.587a165.417 165.417 0 00-.959 3.54 199.811 199.811 0 00-.971 3.917 366.71 366.71 0 00-1.007 4.266c-.344 1.5-.668 3-1 4.5a266.324 266.324 0 00-.959 4.584c-.304 1.529-.621 3.036-.9 4.551a237.593 237.593 0 00-.81 4.385 208.073 208.073 0 00-.682 4.083 133.103 133.103 0 00-.526 3.659 66.747 66.747 0 00-.344 3.1c-.068.8-.121 1.6-.128 2.4a7.288 7.288 0 00.121 1.588l-.004.009z" fill="#6C5853"/>
  <path d="M165.003 147.437l-98.274-3.31v-.809h2.214l96.06 2.46v1.659z" fill="#AA9581"/>
  <path d="M66.73 144.127l98.274 3.31v2.067l-102.713-4.671v-.706h4.439z" fill="#9E8B7B"/>
  <path d="M165.003 151.27l-105.531-5.734v-.7h2.822l102.709 4.671v1.763z" fill="#AA9581"/>
</svg>
